<svg xmlns="http://www.w3.org/2000/svg" viewBox="0 0 32 32"><circle cx="16" cy="16" r="16" fill="#1da1da"/><path d="M9 9v1h2V9m-3 1v3h1v-3m2 0v1h1v-1m2 0v1h4v-1m6 0v1h2v-1m-14 1v1h2v-1m4 0v1h1v-1m4 0v3h1v-3m2 0v2h1v-2m-17 1v1h2v-1m7 0v2h1v-2M7 13v3h1v-3m2 0v1h1v-1m1 0v1h1v-1m12 0v3h1v-3M9 14v4h1v-4m1 0v3h1v-3m8 0v4h1v-4m1 0v4h1v-4M6 16v3h1v-3m8 0v1h1v-1m8 0v3h1v-3m-13 1v2h1v-2m1 0v1h1v-1m-7 1v3h1v-3m10 0v1h1v-1m1 0v1h1v-1M5 19v2h1v-2m7 0v1h1v-1m4 0v1h1v-1m1 0v1h2v-1m1 0v3h1v-3m-10 1v1h4v-1m1 0v1h1v-1M6 21v1h2v-1m12 0v1h1v-1m0 1v1h2v-1"/><path fill="#4385e1" d="M10 10v1h1v-1m-2 1v2h1v-2m1 0v1h1v-1m2 0v1h1v-1m10 0v1h1v-1m-13 1v1h1v-1m4 0v1h1v-1m5 0v3h1v-3M8 13v4h1v-4m3 1v3h1v-3m10 1v3h1v-3m-5 1v2h1v-2M7 17v2h1v-2m14 1v3h1v-3M6 19v1h2v-1m11 0v1h1v-1M6 20v1h1v-1"/><path fill="#eaf2ff" d="M15 13v1h1v-1m-2 1v1h3v-1m-4 1v3h1v-3m2 0v3h2v-3m-4 3v1h3v-1m-2 1v1h1v-1"/><path fill="#1456b2" d="M10 11v1h1v-1m6 0v1h1v-1m-6 1v1h1v-1m2 0v1h2v-1m0 1v1h1v-1m0 1v5h1v-5m-2 5v1h1v-1m3 1v1h1v-1"/><path fill="#2d6fcb" d="M14 12v1h1v-1m10 0v1h1v-1M9 13v1h1v-1m3 0v1h1v-1m9 1v1h1v-1m0 1v1h1v-1M7 16v1h1v-1m0 1v1h1v-1m14 1v1h1v-1M7 20v1h1v-1m12 0v1h1v-1m0 1v1h2v-1"/><path fill="#71acff" d="M9 10v1h1v-1m5 1v1h2v-1m7 0v1h1v-1m-8 1v1h1v-1m0 1v1h1v-1m0 1v2h1v-2"/><path fill="#a9ccff" d="M14 13v1h1v-1m1 0v1h1v-1m-4 1v1h1v-1m3 0v1h1v-1m-5 4v1h1v-1m3 0v1h1v-1m-4 1v1h1v-1m1 0v1h1v-1"/><path fill="#414141" d="M14 15v1h1v-1m0 2v1h1v-1"/><path fill="#848484" d="M15 15v1h1v-1"/><path fill="#a5a5a5" d="M14 16v1h1v-1"/></svg>